<?xml version="1.0" encoding="UTF-8" standalone="no"?>
<!-- Generator: Adobe Illustrator 13.0.0, SVG Export Plug-In . SVG Version: 6.00 Build 14948)  -->

<svg
   xmlns:dc="http://purl.org/dc/elements/1.1/"
   xmlns:cc="http://creativecommons.org/ns#"
   xmlns:rdf="http://www.w3.org/1999/02/22-rdf-syntax-ns#"
   xmlns:svg="http://www.w3.org/2000/svg"
   xmlns="http://www.w3.org/2000/svg"
   xmlns:sodipodi="http://sodipodi.sourceforge.net/DTD/sodipodi-0.dtd"
   xmlns:inkscape="http://www.inkscape.org/namespaces/inkscape"
   version="1.1"
   id="Raketa"
   x="0px"
   y="0px"
   width="400"
   height="400"
   viewBox="0 0 400 399.99998"
   enable-background="new 0 0 76.141 136.682"
   xml:space="preserve"
   sodipodi:docname="rocket.svg"
   inkscape:export-filename="D:\Web\svg\1nove objednane svg\Ikonky\rocket.svg.png"
   inkscape:export-xdpi="300"
   inkscape:export-ydpi="300"
   inkscape:version="0.92.4 (5da689c313, 2019-01-14)"><metadata
     id="metadata69"><rdf:RDF><cc:Work
         rdf:about=""><dc:format>image/svg+xml</dc:format><dc:type
           rdf:resource="http://purl.org/dc/dcmitype/StillImage" /><dc:title></dc:title></cc:Work></rdf:RDF></metadata><defs
     id="defs67" /><sodipodi:namedview
     pagecolor="#ffffff"
     bordercolor="#666666"
     borderopacity="1"
     objecttolerance="10"
     gridtolerance="10"
     guidetolerance="10"
     inkscape:pageopacity="0"
     inkscape:pageshadow="2"
     inkscape:window-width="1920"
     inkscape:window-height="1001"
     id="namedview65"
     showgrid="false"
     fit-margin-top="0"
     fit-margin-left="0"
     fit-margin-right="0"
     fit-margin-bottom="0"
     inkscape:zoom="0.98722476"
     inkscape:cx="-103.78138"
     inkscape:cy="264.78746"
     inkscape:window-x="-9"
     inkscape:window-y="-9"
     inkscape:window-maximized="1"
     inkscape:current-layer="Raketa" /><g
     id="g62"
     transform="matrix(2.6779662,0,0,2.6779662,98.049827,16.985112)"><path
       d="m 3.699,128.853 c 1.01,-0.802 2.059,-1.494 3.128,-2.07 -0.975,0.495 -1.805,0.995 -2.463,1.461 -0.237,0.218 -0.456,0.42 -0.665,0.609 z"
       id="path2"
       inkscape:connector-curvature="0"
       style="fill:#ffc41d" /><path
       d="m 4.364,128.244 c 2.875,-2.666 7.592,-7.41 9.611,-11.561 1.216,-2.5 1.91,-6.254 2.305,-9.834 -0.403,-2.452 -0.805,-5.072 -1.181,-7.801 C 3.545,115.417 2,130.349 2,130.349 c 0,0 0.708,-0.936 2.364,-2.105 z"
       id="path4"
       inkscape:connector-curvature="0"
       style="fill:#ffc41d" /><path
       d="m 4.364,128.244 c 0.659,-0.466 1.488,-0.966 2.463,-1.461 2.775,-1.407 6.892,-2.741 12.705,-3.003 -0.371,-1.638 -1.82,-8.214 -3.253,-16.931 -0.395,3.58 -1.088,7.334 -2.305,9.834 -2.018,4.15 -6.736,8.895 -9.61,11.561 z"
       id="path6"
       inkscape:connector-curvature="0"
       style="fill:#e5a300" /><path
       d="m 2,130.349 c 0,0 0.675,-0.566 1.699,-1.496 0.209,-0.189 0.428,-0.391 0.665,-0.609 C 2.708,129.413 2,130.349 2,130.349 Z"
       id="path8"
       inkscape:connector-curvature="0"
       style="fill:#e5a300" /><path
       d="m 71.777,128.244 c 1.655,1.169 2.363,2.105 2.363,2.105 0,0 -1.545,-14.932 -13.099,-31.301 -0.376,2.729 -0.777,5.349 -1.181,7.801 0.395,3.58 1.088,7.334 2.305,9.834 2.021,4.15 6.737,8.895 9.612,11.561 z"
       id="path10"
       inkscape:connector-curvature="0"
       style="fill:#ffc41d" /><path
       d="m 69.313,126.783 c 1.069,0.576 2.118,1.269 3.128,2.07 -0.209,-0.189 -0.428,-0.391 -0.664,-0.609 -0.659,-0.466 -1.488,-0.966 -2.464,-1.461 z"
       id="path12"
       inkscape:connector-curvature="0"
       style="fill:#ffc41d" /><path
       d="M 61.422,96.167 C 62.366,88.731 63.07,80.696 63.07,73.226 63.07,51.142 42.515,23.291 40.172,20.188 40.126,20.127 40.076,20.069 40.024,20.014 l -0.471,-0.495 c 2.222,-0.646 3.855,-2.673 3.855,-5.105 0,-2.604 -1.868,-4.768 -4.337,-5.237 V 8.211 C 40.889,7.761 42.242,6.131 42.244,4.172 42.242,1.867 40.375,0 38.069,0 c -2.306,0 -4.171,1.867 -4.173,4.173 0,1.96 1.354,3.591 3.175,4.04 v 0.963 c -2.471,0.469 -4.34,2.632 -4.34,5.237 0,2.361 1.541,4.338 3.664,5.045 -0.014,0.017 -0.031,0.029 -0.044,0.046 C 35.4,20.741 13.07,50.071 13.07,73.225 c 0,7.471 0.704,15.506 1.648,22.941 -12.85,17.252 -14.638,33.295 -14.708,33.978 -0.087,0.842 0.366,1.647 1.13,2.011 0.274,0.131 0.567,0.194 0.858,0.194 0.519,0 1.031,-0.202 1.415,-0.586 5.504,-5.504 13.405,-6.098 16.547,-6.098 0.22,0 0.418,0.003 0.592,0.008 1.509,1.689 5.635,4.93 15.271,5.372 l 0.251,3.77 c 0.07,1.052 0.944,1.867 1.996,1.867 0.01,0 0.02,0 0.029,0 1.063,-0.016 1.93,-0.861 1.969,-1.925 l 0.14,-3.707 c 9.713,-0.424 13.865,-3.682 15.38,-5.377 0.174,-0.005 0.371,-0.008 0.592,-0.008 3.142,0 11.043,0.594 16.547,6.098 0.384,0.384 0.896,0.586 1.415,0.586 0.29,0 0.584,-0.063 0.858,-0.194 0.764,-0.363 1.217,-1.169 1.13,-2.011 -0.07,-0.683 -1.859,-16.725 -14.708,-33.977 z m -25.589,4.889 h 3.5 l -1.263,33.626 z m 4.452,27.937 1.047,-27.861 c 0.02,-0.543 -0.182,-1.071 -0.559,-1.463 -0.377,-0.392 -0.896,-0.612 -1.44,-0.612 h -3.5 c -0.554,0 -1.082,0.229 -1.46,0.634 -0.378,0.404 -0.572,0.946 -0.535,1.499 l 1.852,27.832 0.001,0.019 c -0.564,-0.029 -1.101,-0.071 -1.624,-0.119 -0.164,-0.015 -0.327,-0.028 -0.487,-0.046 -9.644,-1.016 -12.009,-5.152 -12.009,-5.152 0,0 -1.095,-4.68 -2.386,-11.764 -2.082,-11.164 -4.687,-27.813 -4.114,-38.733 0,-1.853 0.165,-3.754 0.444,-5.68 h 0.14 4.789 c -0.026,0.391 -0.06,0.78 -0.06,1.177 0,9.753 7.935,17.688 17.688,17.688 2.229,0 4.355,-0.432 6.322,-1.188 6.636,-2.552 11.365,-8.976 11.365,-16.499 0,-0.397 -0.034,-0.787 -0.06,-1.178 h 4.935 c 0.277,1.924 0.438,3.825 0.438,5.681 0,22.74 -6.5,50.497 -6.5,50.497 0,0 -1.305,2.831 -7.576,4.368 -1.81,0.472 -4.021,0.828 -6.711,0.955 z M 16.279,106.849 c 1.433,8.717 2.882,15.293 3.253,16.931 -5.813,0.262 -9.93,1.596 -12.705,3.003 -1.069,0.576 -2.118,1.269 -3.128,2.07 -1.024,0.93 -1.699,1.496 -1.699,1.496 0,0 1.545,-14.932 13.099,-31.301 0.376,2.729 0.777,5.349 1.18,7.801 z M 38.071,11.075 c 1.843,0.004 3.334,1.496 3.338,3.338 -0.004,1.845 -1.495,3.337 -3.338,3.341 -1.845,-0.004 -3.336,-1.496 -3.34,-3.341 0.003,-1.843 1.495,-3.334 3.34,-3.338 z m 0.505,10.318 c 2.08,2.754 18.035,24.373 21.726,44.152 H 55.456 C 53.962,57.349 46.812,51.108 38.207,51.042 c -0.046,0 -0.091,-0.007 -0.137,-0.007 -8.667,0 -15.883,6.271 -17.386,14.51 h -4.7 -0.138 c 0.679,-3.626 1.765,-7.318 3.109,-10.953 1.198,-3.324 2.644,-6.648 4.334,-10.018 0.013,-0.027 0.026,-0.055 0.04,-0.083 0.031,-0.063 0.063,-0.125 0.095,-0.188 6.532,-13.191 14.512,-23.582 14.512,-23.582 z m 15.182,47.329 c 0,8.665 -7.023,15.688 -15.688,15.688 -8.665,0 -15.688,-7.022 -15.688,-15.688 0,-8.663 7.023,-15.688 15.688,-15.688 8.665,0 15.688,7.025 15.688,15.688 z M 21.083,66.544 Z m 38.778,40.305 c 0.403,-2.452 0.805,-5.072 1.181,-7.801 11.554,16.369 13.099,31.301 13.099,31.301 0,0 -0.675,-0.566 -1.699,-1.496 -1.01,-0.802 -2.059,-1.494 -3.128,-2.07 -2.775,-1.407 -6.892,-2.741 -12.705,-3.003 0.37,-1.638 1.819,-8.214 3.252,-16.931 z M 35.897,4.173 C 35.899,2.974 36.87,2.001 38.069,1.999 39.27,2.001 40.241,2.974 40.243,4.173 40.241,5.374 39.27,6.345 38.069,6.347 36.871,6.345 35.899,5.374 35.897,4.173 Z"
       id="path14"
       inkscape:connector-curvature="0"
       style="fill:#3a3a3a" /><path
       d="m 71.777,128.244 c 0.236,0.219 0.455,0.42 0.664,0.609 1.024,0.93 1.699,1.496 1.699,1.496 0,0 -0.707,-0.936 -2.363,-2.105 z"
       id="path16"
       inkscape:connector-curvature="0"
       style="fill:#e5a300" /><path
       d="m 71.777,128.244 c -2.875,-2.666 -7.592,-7.41 -9.611,-11.561 -1.217,-2.5 -1.91,-6.254 -2.305,-9.834 -1.434,8.717 -2.883,15.293 -3.253,16.931 5.813,0.262 9.93,1.596 12.705,3.003 0.976,0.495 1.805,0.995 2.464,1.461 z"
       id="path18"
       inkscape:connector-curvature="0"
       style="fill:#e5a300" /><path
       d="m 23.29,44.575 c 0.014,-0.027 0.026,-0.055 0.04,-0.083 -0.014,0.028 -0.027,0.055 -0.04,0.083 z"
       id="path20"
       inkscape:connector-curvature="0"
       style="fill:#f2f2f2" /><path
       d="m 37.937,20.722 c 0,0 -7.98,10.391 -14.512,23.582 3.764,-7.455 8.677,-15.143 14.512,-23.582 z"
       id="path22"
       inkscape:connector-curvature="0"
       style="fill:#f2f2f2" /><path
       d="m 38.207,51.042 c 8.605,0.066 15.755,6.308 17.249,14.503 h 4.846 C 56.612,45.766 40.656,24.147 38.576,21.393 l -0.64,-0.671 c 10e-4,0 -2.49,7.678 0.271,30.32 z"
       id="path24"
       inkscape:connector-curvature="0"
       style="fill:#f2f2f2" /><path
       d="m 15.847,65.545 h 0.138 c 0.668,-3.692 1.664,-7.325 2.971,-10.953 -1.345,3.635 -2.431,7.326 -3.109,10.953 z"
       id="path26"
       inkscape:connector-curvature="0"
       style="fill:#f2f2f2" /><path
       d="m 34.066,128.92 c 0.523,0.048 1.06,0.09 1.624,0.119 l -10e-4,-0.019 c -0.064,-0.002 -0.125,-0.003 -0.189,-0.005 -0.494,-0.016 -0.967,-0.054 -1.434,-0.095 z"
       id="path28"
       inkscape:connector-curvature="0"
       style="fill:#f2f2f2" /><path
       d="m 40.285,128.993 -0.002,0.053 c 2.689,-0.127 4.901,-0.483 6.711,-0.955 -1.798,0.44 -4.008,0.772 -6.709,0.902 z"
       id="path30"
       inkscape:connector-curvature="0"
       style="fill:#f2f2f2" /><path
       d="m 15.514,67.545 c -0.279,1.926 -0.444,3.828 -0.444,5.68 0.101,-1.919 0.308,-3.807 0.583,-5.68 z"
       id="path32"
       inkscape:connector-curvature="0"
       style="fill:#f2f2f2" /><path
       d="m 21.57,123.722 c 0,0 2.365,4.137 12.009,5.152 -8.169,-0.873 -12.009,-5.152 -12.009,-5.152 z"
       id="path34"
       inkscape:connector-curvature="0"
       style="fill:#f2f2f2" /><path
       d="m 19.185,111.958 c 1.291,7.084 2.386,11.764 2.386,11.764 0,0 -1.093,-4.825 -2.386,-11.764 z"
       id="path36"
       inkscape:connector-curvature="0"
       style="fill:#f2f2f2" /><path
       d="m 54.57,123.722 c 0,0 6.5,-27.757 6.5,-50.497 0,-1.855 -0.16,-3.757 -0.438,-5.681 h -4.935 c 0.025,0.391 0.06,0.78 0.06,1.178 0,7.523 -4.729,13.947 -11.365,16.499 2.516,11.044 5.829,23.799 10.178,38.501 z"
       id="path38"
       inkscape:connector-curvature="0"
       style="fill:#f2f2f2" /><path
       d="m 34.73,14.413 c 0.004,1.845 1.495,3.337 3.34,3.341 1.843,-0.004 3.334,-1.496 3.338,-3.341 -0.004,-1.843 -1.495,-3.334 -3.338,-3.338 -1.844,0.004 -3.336,1.495 -3.34,3.338 z"
       id="path40"
       inkscape:connector-curvature="0"
       style="fill:#f24e4e" /><circle
       cx="38.069"
       cy="4.1729999"
       r="2.174"
       id="circle42"
       style="fill:#66b6ff" /><path
       d="m 23.33,44.492 c -0.014,0.028 -0.026,0.055 -0.04,0.083 -1.69,3.37 -3.136,6.693 -4.334,10.018 -1.308,3.627 -2.303,7.26 -2.971,10.953 h 4.7 c 1.503,-8.24 8.719,-14.51 17.386,-14.51 0.046,0 0.09,0.006 0.137,0.007 C 35.447,28.401 37.937,20.724 37.937,20.724 32.102,29.162 27.19,36.85 23.425,44.306 c -0.032,0.061 -0.064,0.123 -0.095,0.186 z"
       id="path44"
       inkscape:connector-curvature="0"
       style="fill:#ffffff" /><path
       d="M 54.57,123.722 C 50.22,109.02 46.908,96.265 44.392,85.221 c -1.967,0.757 -4.093,1.188 -6.322,1.188 -9.753,0 -17.688,-7.935 -17.688,-17.688 0,-0.397 0.034,-0.786 0.06,-1.177 h -4.789 c -0.276,1.874 -0.483,3.761 -0.583,5.68 -0.573,10.921 2.032,27.569 4.114,38.733 1.293,6.938 2.386,11.764 2.386,11.764 0,0 3.839,4.279 12.009,5.152 0.16,0.018 0.324,0.031 0.487,0.046 0.467,0.041 0.939,0.078 1.434,0.096 0.065,0.002 0.125,0.003 0.189,0.005 l -1.852,-27.832 c -0.037,-0.553 0.157,-1.095 0.535,-1.499 0.378,-0.404 0.907,-0.634 1.46,-0.634 h 3.5 c 0.544,0 1.063,0.221 1.44,0.612 0.377,0.391 0.578,0.92 0.559,1.463 l -1.047,27.861 c 2.701,-0.13 4.911,-0.462 6.709,-0.902 6.273,-1.536 7.577,-4.367 7.577,-4.367 z"
       id="path46"
       inkscape:connector-curvature="0"
       style="fill:#ffffff" /><path
       d="m 38.07,53.035 c -8.664,0 -15.688,7.024 -15.688,15.688 0,8.665 7.023,15.688 15.688,15.688 8.665,0 15.688,-7.022 15.688,-15.688 0,-8.664 -7.024,-15.688 -15.688,-15.688 z m 0,29.187 c -7.456,0 -13.5,-6.043 -13.5,-13.5 0,-7.455 6.044,-13.5 13.5,-13.5 7.456,0 13.5,6.045 13.5,13.5 0,7.457 -6.044,13.5 -13.5,13.5 z"
       id="path48"
       inkscape:connector-curvature="0"
       style="fill:#f24e4e" /><polygon
       points="38.07,134.682 39.333,101.056 35.833,101.056 "
       id="polygon50"
       style="fill:#ffc41d" /><path
       d="m 38.07,57.222 c -6.341,0 -11.5,5.159 -11.5,11.5 0,6.341 5.159,11.5 11.5,11.5 6.342,0 11.5,-5.159 11.5,-11.5 0,-6.341 -5.158,-11.5 -11.5,-11.5 z m -2.935,11.083 4.656,-6.133 c 0.333,-0.44 0.961,-0.527 1.4,-0.191 0.44,0.333 0.526,0.96 0.191,1.4 l -4.654,6.132 c -0.197,0.26 -0.496,0.396 -0.798,0.396 -0.211,0 -0.424,-0.067 -0.604,-0.205 -0.44,-0.332 -0.524,-0.959 -0.191,-1.399 z m 5.961,1.33 -4.654,6.134 c -0.196,0.259 -0.495,0.396 -0.796,0.396 -0.211,0 -0.424,-0.066 -0.605,-0.204 C 34.601,75.628 34.517,75 34.85,74.56 l 4.655,-6.132 c 0.335,-0.44 0.961,-0.526 1.401,-0.193 0.439,0.334 0.526,0.962 0.19,1.4 z"
       id="path52"
       inkscape:connector-curvature="0"
       style="fill:#66b6ff" /><path
       d="m 38.07,55.222 c -7.456,0 -13.5,6.045 -13.5,13.5 0,7.457 6.044,13.5 13.5,13.5 7.456,0 13.5,-6.043 13.5,-13.5 0,-7.455 -6.044,-13.5 -13.5,-13.5 z m 11.5,13.5 c 0,6.341 -5.158,11.5 -11.5,11.5 -6.341,0 -11.5,-5.159 -11.5,-11.5 0,-6.341 5.159,-11.5 11.5,-11.5 6.342,0 11.5,5.159 11.5,11.5 z"
       id="path54"
       inkscape:connector-curvature="0"
       style="fill:#3a3a3a" /><path
       d="m 35.931,69.91 c 0.302,0 0.601,-0.137 0.798,-0.396 l 4.654,-6.132 c 0.335,-0.44 0.249,-1.067 -0.191,-1.4 -0.439,-0.335 -1.067,-0.249 -1.4,0.191 l -4.656,6.133 c -0.333,0.44 -0.249,1.067 0.191,1.4 0.18,0.136 0.393,0.204 0.604,0.204 z"
       id="path56"
       inkscape:connector-curvature="0"
       style="fill:#3a3a3a" /><path
       d="m 40.905,68.234 c -0.44,-0.333 -1.066,-0.247 -1.401,0.193 l -4.655,6.132 C 34.516,75 34.6,75.627 35.041,75.96 c 0.181,0.138 0.394,0.204 0.605,0.204 0.302,0 0.6,-0.137 0.796,-0.396 l 4.654,-6.134 c 0.336,-0.437 0.249,-1.065 -0.191,-1.4 z"
       id="path58"
       inkscape:connector-curvature="0"
       style="fill:#3a3a3a" /><line
       x1="21.083"
       y1="66.543999"
       x2="21.083"
       y2="66.543999"
       id="line60"
       style="fill:none;stroke:#4d6df4;stroke-width:0;stroke-linecap:round;stroke-linejoin:round" /></g></svg>